<svg width="51" height="26" viewBox="0 0 51 26" fill="none" xmlns="http://www.w3.org/2000/svg">
<path d="M4.80524 4.10892V19.7991C4.80524 20.8545 5.92735 21.8911 7.07063 21.8911H43.9294C45.0727 21.8911 46.1948 20.8545 46.1948 19.7991V4.10892H4.80524ZM19.2759 15.9267C19.138 16.2845 18.943 16.5993 18.691 16.8703C18.439 17.1412 18.1299 17.3587 17.7602 17.5209C17.3904 17.683 16.9728 17.7635 16.5028 17.7635C16.3014 17.7635 16.0945 17.751 15.8802 17.728C15.6659 17.705 15.4506 17.6631 15.2326 17.6066C15.0147 17.5502 14.8068 17.4707 14.61 17.3702C14.4131 17.2698 14.2439 17.1485 14.1004 17.0052L14.3644 15.7751C14.4821 15.8514 14.6302 15.9257 14.8105 15.9968C14.9907 16.068 15.1765 16.1349 15.3697 16.1966C15.5628 16.2583 15.7551 16.3085 15.9482 16.3472C16.1414 16.3859 16.3207 16.4048 16.489 16.4048C17.0004 16.4048 17.3923 16.2688 17.6645 15.9968C17.9368 15.7249 18.0729 15.3222 18.0729 14.7887C18.0729 14.4644 17.9772 14.1883 17.7841 13.9592C17.5909 13.7301 17.35 13.523 17.0611 13.3368C16.7723 13.1506 16.4596 12.9655 16.1239 12.7793C15.7882 12.5931 15.4745 12.3735 15.1811 12.1214C14.8877 11.8693 14.6449 11.5712 14.4518 11.2281C14.2586 10.885 14.163 10.4561 14.163 9.94148C14.163 9.47495 14.2384 9.05969 14.3892 8.69777C14.5401 8.33585 14.7433 8.02728 14.999 7.77519C15.2547 7.5231 15.5527 7.32959 15.8921 7.1957C16.2315 7.06181 16.5902 6.99591 16.9673 6.99591C17.3527 6.99591 17.7427 7.0367 18.1364 7.11724C18.53 7.19779 18.8483 7.32958 19.092 7.51054C19.0414 7.63397 18.9835 7.76995 18.9163 7.91849C18.8492 8.06702 18.7857 8.20405 18.7278 8.33271C18.6698 8.46137 18.6192 8.56911 18.5769 8.65488C18.5346 8.74065 18.5098 8.78877 18.5015 8.79819C18.4509 8.76994 18.3948 8.73229 18.3313 8.68417C18.2679 8.63605 18.1787 8.58898 18.0609 8.54087C17.9432 8.49275 17.7887 8.46032 17.5955 8.44045C17.4024 8.42057 17.155 8.4258 16.8533 8.45509C16.685 8.47497 16.5268 8.52831 16.375 8.61932C16.2232 8.71032 16.0899 8.8212 15.9721 8.95509C15.8544 9.08898 15.7624 9.23855 15.6953 9.40592C15.6281 9.57328 15.595 9.73332 15.595 9.88499C15.595 10.2657 15.6907 10.5733 15.8838 10.8076C16.077 11.0419 16.3161 11.2459 16.6003 11.4226C16.8846 11.5994 17.1954 11.7709 17.5311 11.9373C17.8669 12.1036 18.1787 12.3075 18.4684 12.545C18.7581 12.7824 18.9982 13.0816 19.1913 13.4383C19.3845 13.795 19.4801 14.2552 19.4801 14.818C19.4838 15.1998 19.4148 15.569 19.2759 15.9267ZM25.4945 17.7646H23.5326L20.6528 7.16745H22.3756L24.526 16.2625L26.8024 7.16745H28.5123L25.4945 17.7646ZM37.1516 16.3483C36.9585 16.6255 36.7433 16.8504 36.5041 17.0272C36.265 17.2039 36.0139 17.3493 35.7499 17.4633C35.4859 17.5774 35.2137 17.6589 34.9322 17.7071C34.6508 17.7552 34.373 17.7782 34.0962 17.7782C33.5425 17.7782 33.0338 17.6642 32.5684 17.4351C32.103 17.206 31.6965 16.8682 31.3488 16.4194C31.0012 15.9707 30.728 15.409 30.5312 14.7322C30.3343 14.0554 30.2359 13.273 30.2359 12.387C30.2359 11.5011 30.3343 10.7208 30.5312 10.0492C30.728 9.37768 31.0012 8.81701 31.3488 8.36932C31.6965 7.92163 32.1049 7.58063 32.5749 7.34632C33.0449 7.11202 33.5517 6.99591 34.0962 6.99591C34.5993 6.99591 35.0693 7.0911 35.5043 7.28147C35.9394 7.47184 36.3294 7.75845 36.6734 8.1392L35.6294 9.19776C35.428 8.92057 35.1971 8.72078 34.9378 8.59735C34.6784 8.47392 34.4098 8.41116 34.133 8.41116C33.823 8.41116 33.5278 8.47706 33.2463 8.61095C32.9649 8.74484 32.7138 8.97078 32.4921 9.28981C32.2704 9.60884 32.0957 10.021 31.9706 10.5272C31.8455 11.0335 31.7774 11.6517 31.7692 12.386C31.7774 13.1015 31.8427 13.7207 31.9641 14.2448C32.0856 14.7688 32.253 15.1977 32.4673 15.5314C32.6816 15.865 32.9244 16.1129 33.1966 16.2751C33.4689 16.4372 33.7559 16.5177 34.0585 16.5177C34.1514 16.5177 34.2737 16.5104 34.4291 16.4958C34.5846 16.4811 34.7391 16.4581 34.8945 16.4246C35.05 16.3912 35.1981 16.3462 35.3406 16.2887C35.4832 16.2311 35.588 16.1506 35.6552 16.046V13.4435H34.0833V12.2709H37.1516V16.3483Z" fill="#4E555B"/>
</svg>
