<svg width="22" height="23" viewBox="0 0 22 23" fill="none" xmlns="http://www.w3.org/2000/svg">
<g clip-path="url(#clip0_211_2)">
<path fill-rule="evenodd" clip-rule="evenodd" d="M1.78936 0H20.2438C21.232 0 22.0331 0.811528 22.0331 1.8126V20.5652C22.0331 21.5662 21.232 22.3778 20.2438 22.3778H1.78936C0.801123 22.3778 0 21.5662 0 20.5652V1.8126C0 0.811528 0.801123 0 1.78936 0ZM17.7216 5.67778C17.8108 5.06491 17.3936 4.49435 16.7893 4.40365C14.5065 4.06106 12.344 6.12035 10.0371 10.5816C8.22557 14.085 6.59632 15.8457 5.48712 15.7624C4.8777 15.7167 4.34751 16.181 4.30255 16.799C4.2576 17.4169 4.71467 17.9551 5.32398 18.0009C7.57018 18.1694 9.7037 16.0573 11.9959 11.6245C13.7914 8.15211 15.3952 6.46339 16.4657 6.62404C17.0702 6.71477 17.6324 6.29086 17.7216 5.67778Z" fill="#4E555B"/>
</g>
<defs>
<clipPath id="clip0_211_2">
<rect width="22" height="23" fill="white"/>
</clipPath>
</defs>
</svg>
