<svg width="136" height="98" viewBox="0 0 136 98" fill="none" xmlns="http://www.w3.org/2000/svg">
<path fill-rule="evenodd" clip-rule="evenodd" d="M10.4985 16.5C10.4985 13.1863 13.1848 10.5 16.4985 10.5H119.117C122.431 10.5 125.117 13.1863 125.117 16.5V81.076C125.117 84.3897 122.431 87.076 119.117 87.076H16.4985C13.1848 87.076 10.4985 84.3897 10.4985 81.076V16.5ZM42.0103 25.3939C40.6435 24.0271 38.4274 24.0271 37.0605 25.3939L24.3326 38.1218C22.9658 39.4887 22.9658 41.7047 24.3326 43.0716C25.6995 44.4384 27.9155 44.4384 29.2824 43.0716L36.0354 36.3185V64.3708L29.2824 57.6178C27.9155 56.2509 25.6995 56.2509 24.3326 57.6178C22.9658 58.9846 22.9658 61.2007 24.3326 62.5675L37.0605 75.2954C38.4274 76.6623 40.6435 76.6623 42.0103 75.2954L54.7382 62.5675C56.105 61.2007 56.105 58.9846 54.7382 57.6178C53.3714 56.2509 51.1553 56.2509 49.7885 57.6178L43.0354 64.3708L43.0354 36.3185L49.7885 43.0716C51.1553 44.4384 53.3714 44.4384 54.7382 43.0716C56.105 41.7047 56.105 39.4887 54.7382 38.1218L42.0103 25.3939ZM67.5327 51.2629C66.1659 49.896 66.1659 47.68 67.5327 46.3131L80.2606 33.5852C81.6274 32.2184 83.8435 32.2184 85.2104 33.5852C86.5772 34.9521 86.5772 37.1681 85.2104 38.535L78.4573 45.288H106.51L99.7566 38.535C98.3897 37.1681 98.3897 34.9521 99.7566 33.5852C101.123 32.2184 103.339 32.2184 104.706 33.5852L117.434 46.3131C118.801 47.68 118.801 49.896 117.434 51.2629L104.706 63.9908C103.339 65.3576 101.123 65.3576 99.7566 63.9908C98.3897 62.624 98.3897 60.4079 99.7566 59.0411L106.51 52.288H78.4573L85.2104 59.0411C86.5772 60.4079 86.5772 62.624 85.2104 63.9908C83.8435 65.3576 81.6274 65.3576 80.2606 63.9908L67.5327 51.2629Z" fill="#386689"/>
</svg>
