<svg width="136" height="98" viewBox="0 0 136 98" fill="none" xmlns="http://www.w3.org/2000/svg">
<path fill-rule="evenodd" clip-rule="evenodd" d="M10.4985 16.924C10.4985 13.6103 13.1848 10.924 16.4985 10.924H119.117C122.431 10.924 125.117 13.6102 125.117 16.924V81.5C125.117 84.8137 122.431 87.5 119.117 87.5H16.4985C13.1848 87.5 10.4985 84.8137 10.4985 81.5V16.924ZM42.0103 25.8178C40.6434 24.451 38.4274 24.451 37.0605 25.8178L24.3326 38.5458C22.9658 39.9126 22.9658 42.1287 24.3326 43.4955C25.6995 44.8624 27.9155 44.8624 29.2823 43.4955L36.0354 36.7425V64.7948L29.2823 58.0417C27.9155 56.6749 25.6995 56.6749 24.3326 58.0417C22.9658 59.4086 22.9658 61.6246 24.3326 62.9915L37.0605 75.7194C38.4274 77.0862 40.6434 77.0862 42.0103 75.7194L54.7382 62.9915C56.105 61.6246 56.105 59.4086 54.7382 58.0417C53.3714 56.6749 51.1553 56.6749 49.7885 58.0417L43.0354 64.7948V36.7425L49.7885 43.4955C51.1553 44.8624 53.3714 44.8624 54.7382 43.4955C56.105 42.1287 56.105 39.9126 54.7382 38.5458L42.0103 25.8178ZM67.5327 51.6868C66.1658 50.32 66.1658 48.1039 67.5327 46.7371L80.2606 34.0092C81.6274 32.6423 83.8435 32.6423 85.2104 34.0092C86.5772 35.376 86.5772 37.5921 85.2104 38.9589L78.4573 45.712H106.51L99.7566 38.9589C98.3897 37.5921 98.3897 35.376 99.7566 34.0092C101.123 32.6423 103.339 32.6423 104.706 34.0092L117.434 46.7371C118.801 48.1039 118.801 50.32 117.434 51.6868L104.706 64.4148C103.339 65.7816 101.123 65.7816 99.7566 64.4148C98.3897 63.0479 98.3897 60.8318 99.7566 59.465L106.51 52.712H78.4573L85.2104 59.465C86.5772 60.8318 86.5772 63.0479 85.2104 64.4148C83.8435 65.7816 81.6274 65.7816 80.2606 64.4148L67.5327 51.6868Z" fill="#4E555B"/>
</svg>
